# xmcd CD database file
#
# Track frame offsets:
#	150
#	13832
#	28363
#	41832
#	52325
#	66863
#	73965
#	98607
#	121788
#	135970
#	146774
#	160641
#	171739
#	182745
#	195212
#	209383
#
# Disc length: 2935 seconds
#
# Revision: 0
# Processed by: cddbd v1.5.1PL2 Copyright (c) Steve Scherf et al.
# Submitted via: CDex 1.51
#
DISCID=f00b7510
DTITLE=Various Artist - Cole Porter: De-Lovely [CD3]
DYEAR=1900
DGENRE=Jazz
TTITLE0=Dean Martin - I Love Paris
TTITLE1=Billie Holiday - Easy To Love
TTITLE2=Marlene Dietrich - You Do Something To Me
TTITLE3=Rosemary Clooney and Frank Sinatra - Cherry Pies Ought To Be You
TTITLE4=Perry Como - I Concentrate On You
TTITLE5=Nat King Cole - You're The Top
TTITLE6=Dinah Washington - I've Got You Under My Skin
TTITLE7=Louis Armstrong - Now You Has Jazz
TTITLE8=Fred Astaire - So Near And Yet So Far
TTITLE9=Peggy Lee - It's All Right With Me
TTITLE10=Xavier Cugat - Waltz Down The Aisle
TTITLE11=Ethel Merman - Blow Gabriel Blow
TTITLE12=Bing Crosby - At Long Last Love
TTITLE13=Andrews Sisters - Begin The Beguine
TTITLE14=Jean Sablon - Miss Otis Regrets
TTITLE15=Frank Sinatra - Night And Day
EXTD=
EXTT0=
EXTT1=
EXTT2=
EXTT3=
EXTT4=
EXTT5=
EXTT6=
EXTT7=
EXTT8=
EXTT9=
EXTT10=
EXTT11=
EXTT12=
EXTT13=
EXTT14=
EXTT15=
PLAYORDER=
